# xmcd CD database file
#
# Track frame offsets:
#	150
#	13886
#	26685
#	34946
#	47647
#	83283
#	94432
#	103968
#	120817
#	131718
#	149534
#	165310
#	192006
#	215282
#	238468
#	252107
#	271618
#	286472
#	298108
#	301089
#	302818
#	307074
#	310295
#
# Disc length: 4324 seconds
#
# Revision: 0
# Processed by: cddbd v1.4PL0 Copyright (c) Steve Scherf et al.
# Submitted via: CDex 1.50beta10
#
DISCID=4810e217
DTITLE=Aretha Franklin - Compilation N° 4403
DYEAR=1900
DGENRE=Jazz
TTITLE0=Say It Isn't So
TTITLE1=Skylark
TTITLE2=Take It Like You Give It
TTITLE3=Take A Look
TTITLE4=Mockingbird
TTITLE5=Soulville
TTITLE6=Every Littlke Bit Hurts
TTITLE7=Just For A Thrill
TTITLE8=Money Won't Change You
TTITLE9=People Get Ready
TTITLE10=Niki Hoeky
TTITLE11=Good To Me As I Am To You
TTITLE12=Let It Be
TTITLE13=Sisters Are Doin' For Themselves
TTITLE14=Jumpin' Jack Flash
TTITLE15=Don't Let Me Lose This Dream
TTITLE16=Baby I Love You
TTITLE17=Come Back Baby
TTITLE18=Dr Feelgood
TTITLE19=Groovin'
TTITLE20=Love For Sale
TTITLE21=Once In A Lifetime
TTITLE22=Satisfaction
EXTD=
EXTT0=
EXTT1=
EXTT2=
EXTT3=
EXTT4=
EXTT5=
EXTT6=
EXTT7=
EXTT8=
EXTT9=
EXTT10=
EXTT11=
EXTT12=
EXTT13=
EXTT14=
EXTT15=
EXTT16=
EXTT17=
EXTT18=
EXTT19=
EXTT20=
EXTT21=
EXTT22=
PLAYORDER=
